<svg width="114" height="91" viewBox="0 0 114 91" fill="none" xmlns="http://www.w3.org/2000/svg">
<path d="M11.4 17.0625C11.4 10.7885 16.5122 5.6875 22.8 5.6875H91.2C97.4878 5.6875 102.6 10.7885 102.6 17.0625V62.5625H91.2V17.0625H22.8V62.5625H11.4V17.0625ZM0 71.6625C0 69.7785 1.53188 68.25 3.42 68.25H110.58C112.468 68.25 114 69.7785 114 71.6625C114 79.1984 107.872 85.3125 100.32 85.3125H13.68C6.1275 85.3125 0 79.1984 0 71.6625ZM50.0531 37.1465L44.5312 42.6562L50.0531 48.166C51.7275 49.8367 51.7275 52.5383 50.0531 54.1912C48.3787 55.8441 45.6712 55.8619 44.0147 54.1912L35.4647 45.66C33.7903 43.9893 33.7903 41.2877 35.4647 39.6348L44.0147 31.1035C45.6891 29.4328 48.3966 29.4328 50.0531 31.1035C51.7097 32.7742 51.7275 35.4758 50.0531 37.1287V37.1465ZM70.0031 31.1035L78.5531 39.6348C80.2275 41.3055 80.2275 44.007 78.5531 45.66L70.0031 54.1912C68.3287 55.8619 65.6212 55.8619 63.9647 54.1912C62.3081 52.5205 62.2903 49.8189 63.9647 48.166L69.4866 42.6562L63.9647 37.1465C62.2903 35.4758 62.2903 32.7742 63.9647 31.1213C65.6391 29.4684 68.3466 29.4506 70.0031 31.1213V31.1035Z" fill="#6880FF"/>
</svg>
